<svg width="45" height="50" viewBox="0 0 45 50" fill="none" xmlns="http://www.w3.org/2000/svg">
<rect width="45" height="50" fill="#9BBA74"/>
<path fill-rule="evenodd" clip-rule="evenodd" d="M6.625 22.9167C6.625 14.1625 12.9895 7.25 20.625 7.25C28.2605 7.25 34.625 14.1625 34.625 22.9167C34.625 27.2201 33.0869 31.0786 30.6159 33.8895C30.5933 33.9066 30.5713 33.9248 30.5498 33.9441C30.4745 34.0119 30.4119 34.0885 30.3622 34.1709C27.8278 36.9115 24.3801 38.5833 20.625 38.5833C12.9895 38.5833 6.625 31.6708 6.625 22.9167ZM31.208 36.1703C28.4013 38.9096 24.7081 40.5833 20.625 40.5833C11.6919 40.5833 4.625 32.572 4.625 22.9167C4.625 13.2613 11.6919 5.25 20.625 5.25C29.5581 5.25 36.625 13.2613 36.625 22.9167C36.625 27.4084 35.0956 31.5443 32.5605 34.6833L40.1183 43.081C40.4878 43.4915 40.4545 44.1238 40.044 44.4932C39.6335 44.8627 39.0012 44.8294 38.6317 44.4189L31.208 36.1703Z" fill="white"/>
</svg>
